<svg xmlns="http://www.w3.org/2000/svg" xmlns:xlink="http://www.w3.org/1999/xlink" width="17" height="17" viewBox="0 0 17 17">
  <defs>
    <clipPath id="clip-path">
      <rect id="Rectangle_18723" data-name="Rectangle 18723" width="17" height="17" transform="translate(1078 3741)" fill="#707070"/>
    </clipPath>
  </defs>
  <g id="ico-payment-small" transform="translate(-1078 -3741)" clip-path="url(#clip-path)">
    <g id="Group_14190" data-name="Group 14190" transform="translate(668.918 3485)">
      <path id="Path_7729" data-name="Path 7729" d="M425.037,259H410.13a1.046,1.046,0,0,0-1.047,1.046v8.98a1.047,1.047,0,0,0,1.047,1.046h14.907a1.046,1.046,0,0,0,1.046-1.046v-8.98A1.046,1.046,0,0,0,425.037,259Zm-14.907,1h14.907a.046.046,0,0,1,.046.046v2.621h-15v-2.621A.047.047,0,0,1,410.13,260Zm14.907,9.072H410.13a.047.047,0,0,1-.047-.046v-5.359h15v5.359A.046.046,0,0,1,425.037,269.072Z" fill="#707070"/>
      <path id="Path_7730" data-name="Path 7730" d="M413.75,265.833h-1.917a.5.5,0,0,0,0,1h1.917a.5.5,0,0,0,0-1Z" fill="#707070"/>
      <path id="Path_7731" data-name="Path 7731" d="M417.083,265.833H415.5a.5.5,0,0,0,0,1h1.583a.5.5,0,0,0,0-1Z" fill="#707070"/>
    </g>
  </g>
</svg>
