<svg xmlns="http://www.w3.org/2000/svg" width="444" height="297.695" viewBox="0 0 444 297.695">
  <g id="undraw_city_life_gnpr" transform="translate(36.266 62.431)">
    <path id="Path_7455" data-name="Path 7455" d="M105.422,611.285a8.786,8.786,0,1,1,17.571,0" transform="translate(-121.99 -399.042)" fill="#046a38"/>
    <path id="Path_7456" data-name="Path 7456" d="M122.362,614.8a.237.237,0,0,1-.237-.237v-4.63a.237.237,0,0,1,.475,0v4.63a.237.237,0,0,1-.237.237Z" transform="translate(-130.143 -402.552)" fill="#ccc"/>
    <path id="Path_7457" data-name="Path 7457" d="M119.643,613.771a.235.235,0,0,1-.155-.057l-2.849-2.446a.237.237,0,0,1,.309-.36l2.849,2.445a.238.238,0,0,1-.155.418Z" transform="translate(-127.425 -403.119)" fill="#ccc"/>
    <path id="Path_7458" data-name="Path 7458" d="M158.31,611.285a8.786,8.786,0,1,1,17.571,0" transform="translate(-147.808 -399.042)" fill="#034927"/>
    <path id="Path_7459" data-name="Path 7459" d="M175.248,614.8a.237.237,0,0,1-.237-.237v-4.63a.237.237,0,0,1,.475,0v4.63A.237.237,0,0,1,175.248,614.8Z" transform="translate(-155.961 -402.552)" fill="#ccc"/>
    <path id="Path_7460" data-name="Path 7460" d="M172.531,613.771a.235.235,0,0,1-.155-.057l-2.849-2.446a.237.237,0,1,1,.309-.36l2.849,2.446a.238.238,0,0,1-.155.418Z" transform="translate(-153.244 -403.118)" fill="#ccc"/>
    <ellipse id="Ellipse_31" data-name="Ellipse 31" cx="16.643" cy="17.308" rx="16.643" ry="17.308" transform="translate(352.933 10.277)" fill="#e3f3e6"/>
    <path id="Path_7461" data-name="Path 7461" d="M168.132,294.8c4.027-12.575,13.86-22.327,25.522-28.127,13.836-6.882,29.735-7.661,44.759-4.983,16.218,2.891,31.375,9.557,46.047,16.831,14.391,7.135,28.55,14.669,43.516,20.565a281.694,281.694,0,0,0,93.637,19.4c28.883.963,59.764-2.2,84.494-18.435,22.66-14.875,37.079-39.413,44.589-64.993q1.442-4.912,2.564-9.909c.218-.962-1.262-1.373-1.481-.408-6.058,26.711-18.975,53.11-41.047,70.137-23.872,18.415-55.2,22.673-84.521,22.186a280.334,280.334,0,0,1-94.857-18.3C316,292.915,301.515,285.326,286.844,278c-14.349-7.166-29.1-13.873-44.878-17.178-14.408-3.018-29.833-3.2-43.724,2.168-11.438,4.422-21.867,12.3-27.971,23.085a44.267,44.267,0,0,0-3.619,8.32c-.3.943,1.18,1.347,1.481.408Z" transform="translate(-151.861 -214.361)" fill="#046a38"/>
    <path id="Path_7463" data-name="Path 7463" d="M261.655,520.817c0-9.04-7.333-30.49-16.378-30.49s-16.378,21.45-16.378,30.49a16.378,16.378,0,1,0,32.757,0Z" transform="translate(-182.268 -344.282)" fill="#034927"/>
    <path id="Path_7464" data-name="Path 7464" d="M253.655,520.817c0-9.04-7.333-30.49-16.378-30.49s-16.378,21.45-16.378,30.49a16.378,16.378,0,1,0,32.757,0Z" transform="translate(-178.362 -344.282)" fill="#046a38"/>
    <path id="Path_7465" data-name="Path 7465" d="M253.41,576.956a.512.512,0,0,1-.512-.512V530.82a.512.512,0,0,1,1.024,0v45.624A.512.512,0,0,1,253.41,576.956Z" transform="translate(-193.984 -363.8)" fill="#2f2e41"/>
    <path id="Path_7466" data-name="Path 7466" d="M253.41,538.561a.512.512,0,0,1-.362-.874l6.693-6.694a.512.512,0,0,1,.724.724l-6.693,6.694A.51.51,0,0,1,253.41,538.561Z" transform="translate(-193.984 -364.061)" fill="#2f2e41"/>
    <path id="Path_7472" data-name="Path 7472" d="M349.89,253.544H341.7a2.306,2.306,0,0,1-2.3-2.3V232.3a2.306,2.306,0,0,1,2.3-2.3h8.189a2.306,2.306,0,0,1,2.3,2.3v18.938A2.306,2.306,0,0,1,349.89,253.544Z" transform="translate(-201.457 -292.431)" fill="#2f2e41"/>
    <path id="Path_10866" data-name="Path 10866" d="M378.718,532.345h-41.97c-2.4,0-4.348-2.838-4.35-6.335V279.335c0-3.5,1.949-6.331,4.35-6.335h41.97c2.4,0,4.348,2.838,4.351,6.335V526.011C383.066,529.508,381.12,532.341,378.718,532.345Z" transform="translate(-190.569 -319.418)" fill="#2f2e41"/>
    <path id="Path_7474" data-name="Path 7474" d="M368.317,532.34H291.374c-4.4,0-7.971-2.838-7.976-6.334V279.335c.005-3.5,3.573-6.331,7.976-6.335h76.944c4.4,0,7.971,2.838,7.976,6.335V526.005C376.288,529.5,372.72,532.336,368.317,532.34Z" transform="translate(-208.392 -319.417)" fill="#3f3d56"/>
    <path id="Path_7475" data-name="Path 7475" d="M334.89,253.544H326.7a2.306,2.306,0,0,1-2.3-2.3V232.3a2.306,2.306,0,0,1,2.3-2.3h8.189a2.306,2.306,0,0,1,2.3,2.3v18.938A2.306,2.306,0,0,1,334.89,253.544Z" transform="translate(-194.135 -292.431)" fill="#3f3d56"/>
    <g id="Group_14386" data-name="Group 14386" transform="translate(86.58 -25.583)">
      <g id="Group_14384" data-name="Group 14384">
        <path id="Path_7476" data-name="Path 7476" d="M313.4,331.4h-9.725a1.281,1.281,0,0,1-1.28-1.28V315.28a1.281,1.281,0,0,1,1.28-1.28H313.4a1.281,1.281,0,0,1,1.28,1.28v14.843A1.281,1.281,0,0,1,313.4,331.4Z" transform="translate(-302.398 -232.621)" fill="#fff"/>
        <path id="Path_10861" data-name="Path 10861" d="M313.4,331.4h-9.725a1.281,1.281,0,0,1-1.28-1.28V315.28a1.281,1.281,0,0,1,1.28-1.28H313.4a1.281,1.281,0,0,1,1.28,1.28v14.843A1.281,1.281,0,0,1,313.4,331.4Z" transform="translate(-302.398 -314)" fill="#fff"/>
        <path id="Path_7477" data-name="Path 7477" d="M350.4,331.4h-9.725a1.281,1.281,0,0,1-1.28-1.28V315.28a1.281,1.281,0,0,1,1.28-1.28H350.4a1.281,1.281,0,0,1,1.28,1.28v14.843A1.281,1.281,0,0,1,350.4,331.4Z" transform="translate(-320.46 -232.621)" fill="#fff"/>
        <path id="Path_10860" data-name="Path 10860" d="M350.4,331.4h-9.725a1.281,1.281,0,0,1-1.28-1.28V315.28a1.281,1.281,0,0,1,1.28-1.28H350.4a1.281,1.281,0,0,1,1.28,1.28v14.843A1.281,1.281,0,0,1,350.4,331.4Z" transform="translate(-320.46 -314)" fill="#fff"/>
        <path id="Path_7478" data-name="Path 7478" d="M313.4,384.4h-9.725a1.281,1.281,0,0,1-1.28-1.28V368.28a1.281,1.281,0,0,1,1.28-1.28H313.4a1.281,1.281,0,0,1,1.28,1.28v14.843A1.281,1.281,0,0,1,313.4,384.4Z" transform="translate(-302.398 -258.493)" fill="#fff"/>
        <path id="Path_10862" data-name="Path 10862" d="M313.4,384.4h-9.725a1.281,1.281,0,0,1-1.28-1.28V368.28a1.281,1.281,0,0,1,1.28-1.28H313.4a1.281,1.281,0,0,1,1.28,1.28v14.843A1.281,1.281,0,0,1,313.4,384.4Z" transform="translate(-302.398 -339.872)" fill="#fff"/>
        <path id="Path_7479" data-name="Path 7479" d="M350.4,384.4h-9.725a1.281,1.281,0,0,1-1.28-1.28V368.28a1.281,1.281,0,0,1,1.28-1.28H350.4a1.281,1.281,0,0,1,1.28,1.28v14.843A1.281,1.281,0,0,1,350.4,384.4Z" transform="translate(-320.46 -258.493)" fill="#fff"/>
        <path id="Path_10863" data-name="Path 10863" d="M350.4,384.4h-9.725a1.281,1.281,0,0,1-1.28-1.28V368.28a1.281,1.281,0,0,1,1.28-1.28H350.4a1.281,1.281,0,0,1,1.28,1.28v14.843A1.281,1.281,0,0,1,350.4,384.4Z" transform="translate(-320.46 -339.872)" fill="#fff"/>
        <path id="Path_7480" data-name="Path 7480" d="M313.4,437.4h-9.725a1.281,1.281,0,0,1-1.28-1.28V421.28a1.281,1.281,0,0,1,1.28-1.28H313.4a1.281,1.281,0,0,1,1.28,1.28v14.843A1.281,1.281,0,0,1,313.4,437.4Z" transform="translate(-302.398 -284.367)" fill="#fff"/>
        <path id="Path_10865" data-name="Path 10865" d="M313.4,437.4h-9.725a1.281,1.281,0,0,1-1.28-1.28V421.28a1.281,1.281,0,0,1,1.28-1.28H313.4a1.281,1.281,0,0,1,1.28,1.28v14.843A1.281,1.281,0,0,1,313.4,437.4Z" transform="translate(-302.398 -365.746)" fill="#fff"/>
        <path id="Path_7481" data-name="Path 7481" d="M350.4,437.4h-9.725a1.281,1.281,0,0,1-1.28-1.28V421.28a1.281,1.281,0,0,1,1.28-1.28H350.4a1.281,1.281,0,0,1,1.28,1.28v14.843A1.281,1.281,0,0,1,350.4,437.4Z" transform="translate(-320.46 -284.367)" fill="#fff"/>
        <path id="Path_10864" data-name="Path 10864" d="M350.4,437.4h-9.725a1.281,1.281,0,0,1-1.28-1.28V421.28a1.281,1.281,0,0,1,1.28-1.28H350.4a1.281,1.281,0,0,1,1.28,1.28v14.843A1.281,1.281,0,0,1,350.4,437.4Z" transform="translate(-320.46 -365.746)" fill="#fff"/>
        <path id="Path_7482" data-name="Path 7482" d="M313.4,490.4h-9.725a1.281,1.281,0,0,1-1.28-1.28V474.279a1.281,1.281,0,0,1,1.28-1.28H313.4a1.281,1.281,0,0,1,1.28,1.28v14.843A1.281,1.281,0,0,1,313.4,490.4Z" transform="translate(-302.398 -310.239)" fill="#fff"/>
        <path id="Path_7483" data-name="Path 7483" d="M350.4,490.4h-9.725a1.281,1.281,0,0,1-1.28-1.28V474.279a1.281,1.281,0,0,1,1.28-1.28H350.4a1.281,1.281,0,0,1,1.28,1.28v14.843A1.281,1.281,0,0,1,350.4,490.4Z" transform="translate(-320.46 -310.239)" fill="#fff"/>
        <path id="Path_7484" data-name="Path 7484" d="M313.4,543.4h-9.725a1.281,1.281,0,0,1-1.28-1.28V527.28a1.281,1.281,0,0,1,1.28-1.28H313.4a1.281,1.281,0,0,1,1.28,1.28v14.843A1.281,1.281,0,0,1,313.4,543.4Z" transform="translate(-302.398 -336.114)" fill="#fff"/>
        <path id="Path_7485" data-name="Path 7485" d="M350.4,543.4h-9.725a1.281,1.281,0,0,1-1.28-1.28V527.28a1.281,1.281,0,0,1,1.28-1.28H350.4a1.281,1.281,0,0,1,1.28,1.28v14.843A1.281,1.281,0,0,1,350.4,543.4Z" transform="translate(-320.46 -336.114)" fill="#fff"/>
      </g>
      <g id="Group_14385" data-name="Group 14385" transform="translate(38.643)">
        <path id="Path_7476-2" data-name="Path 7476" d="M313.4,331.4h-9.725a1.281,1.281,0,0,1-1.28-1.28V315.28a1.281,1.281,0,0,1,1.28-1.28H313.4a1.281,1.281,0,0,1,1.28,1.28v14.843A1.281,1.281,0,0,1,313.4,331.4Z" transform="translate(-302.398 -232.621)" fill="#fff"/>
        <path id="Path_10861-2" data-name="Path 10861" d="M313.4,331.4h-9.725a1.281,1.281,0,0,1-1.28-1.28V315.28a1.281,1.281,0,0,1,1.28-1.28H313.4a1.281,1.281,0,0,1,1.28,1.28v14.843A1.281,1.281,0,0,1,313.4,331.4Z" transform="translate(-302.398 -314)" fill="#fff"/>
        <path id="Path_7477-2" data-name="Path 7477" d="M350.4,331.4h-9.725a1.281,1.281,0,0,1-1.28-1.28V315.28a1.281,1.281,0,0,1,1.28-1.28H350.4a1.281,1.281,0,0,1,1.28,1.28v14.843A1.281,1.281,0,0,1,350.4,331.4Z" transform="translate(-320.46 -232.621)" fill="#fff"/>
        <path id="Path_10860-2" data-name="Path 10860" d="M350.4,331.4h-9.725a1.281,1.281,0,0,1-1.28-1.28V315.28a1.281,1.281,0,0,1,1.28-1.28H350.4a1.281,1.281,0,0,1,1.28,1.28v14.843A1.281,1.281,0,0,1,350.4,331.4Z" transform="translate(-320.46 -314)" fill="#fff"/>
        <path id="Path_7478-2" data-name="Path 7478" d="M313.4,384.4h-9.725a1.281,1.281,0,0,1-1.28-1.28V368.28a1.281,1.281,0,0,1,1.28-1.28H313.4a1.281,1.281,0,0,1,1.28,1.28v14.843A1.281,1.281,0,0,1,313.4,384.4Z" transform="translate(-302.398 -258.493)" fill="#fff"/>
        <path id="Path_10862-2" data-name="Path 10862" d="M313.4,384.4h-9.725a1.281,1.281,0,0,1-1.28-1.28V368.28a1.281,1.281,0,0,1,1.28-1.28H313.4a1.281,1.281,0,0,1,1.28,1.28v14.843A1.281,1.281,0,0,1,313.4,384.4Z" transform="translate(-302.398 -339.872)" fill="#fff"/>
        <path id="Path_7479-2" data-name="Path 7479" d="M350.4,384.4h-9.725a1.281,1.281,0,0,1-1.28-1.28V368.28a1.281,1.281,0,0,1,1.28-1.28H350.4a1.281,1.281,0,0,1,1.28,1.28v14.843A1.281,1.281,0,0,1,350.4,384.4Z" transform="translate(-320.46 -258.493)" fill="#fff"/>
        <path id="Path_10863-2" data-name="Path 10863" d="M350.4,384.4h-9.725a1.281,1.281,0,0,1-1.28-1.28V368.28a1.281,1.281,0,0,1,1.28-1.28H350.4a1.281,1.281,0,0,1,1.28,1.28v14.843A1.281,1.281,0,0,1,350.4,384.4Z" transform="translate(-320.46 -339.872)" fill="#fff"/>
        <path id="Path_7480-2" data-name="Path 7480" d="M313.4,437.4h-9.725a1.281,1.281,0,0,1-1.28-1.28V421.28a1.281,1.281,0,0,1,1.28-1.28H313.4a1.281,1.281,0,0,1,1.28,1.28v14.843A1.281,1.281,0,0,1,313.4,437.4Z" transform="translate(-302.398 -284.367)" fill="#fff"/>
        <path id="Path_10865-2" data-name="Path 10865" d="M313.4,437.4h-9.725a1.281,1.281,0,0,1-1.28-1.28V421.28a1.281,1.281,0,0,1,1.28-1.28H313.4a1.281,1.281,0,0,1,1.28,1.28v14.843A1.281,1.281,0,0,1,313.4,437.4Z" transform="translate(-302.398 -365.746)" fill="#fff"/>
        <path id="Path_7481-2" data-name="Path 7481" d="M350.4,437.4h-9.725a1.281,1.281,0,0,1-1.28-1.28V421.28a1.281,1.281,0,0,1,1.28-1.28H350.4a1.281,1.281,0,0,1,1.28,1.28v14.843A1.281,1.281,0,0,1,350.4,437.4Z" transform="translate(-320.46 -284.367)" fill="#fff"/>
        <path id="Path_10864-2" data-name="Path 10864" d="M350.4,437.4h-9.725a1.281,1.281,0,0,1-1.28-1.28V421.28a1.281,1.281,0,0,1,1.28-1.28H350.4a1.281,1.281,0,0,1,1.28,1.28v14.843A1.281,1.281,0,0,1,350.4,437.4Z" transform="translate(-320.46 -365.746)" fill="#fff"/>
        <path id="Path_7482-2" data-name="Path 7482" d="M313.4,490.4h-9.725a1.281,1.281,0,0,1-1.28-1.28V474.279a1.281,1.281,0,0,1,1.28-1.28H313.4a1.281,1.281,0,0,1,1.28,1.28v14.843A1.281,1.281,0,0,1,313.4,490.4Z" transform="translate(-302.398 -310.239)" fill="#fff"/>
        <path id="Path_7483-2" data-name="Path 7483" d="M350.4,490.4h-9.725a1.281,1.281,0,0,1-1.28-1.28V474.279a1.281,1.281,0,0,1,1.28-1.28H350.4a1.281,1.281,0,0,1,1.28,1.28v14.843A1.281,1.281,0,0,1,350.4,490.4Z" transform="translate(-320.46 -310.239)" fill="#fff"/>
        <path id="Path_7484-2" data-name="Path 7484" d="M313.4,543.4h-9.725a1.281,1.281,0,0,1-1.28-1.28V527.28a1.281,1.281,0,0,1,1.28-1.28H313.4a1.281,1.281,0,0,1,1.28,1.28v14.843A1.281,1.281,0,0,1,313.4,543.4Z" transform="translate(-302.398 -336.114)" fill="#fff"/>
        <path id="Path_7485-2" data-name="Path 7485" d="M350.4,543.4h-9.725a1.281,1.281,0,0,1-1.28-1.28V527.28a1.281,1.281,0,0,1,1.28-1.28H350.4a1.281,1.281,0,0,1,1.28,1.28v14.843A1.281,1.281,0,0,1,350.4,543.4Z" transform="translate(-320.46 -336.114)" fill="#fff"/>
      </g>
    </g>
    <path id="Path_7486" data-name="Path 7486" d="M762.89,436.355H754.7a2.306,2.306,0,0,1-2.3-2.3V423.3a2.306,2.306,0,0,1,2.3-2.3h8.189a2.306,2.306,0,0,1,2.3,2.3v10.748A2.306,2.306,0,0,1,762.89,436.355Z" transform="translate(-522.02 -310.438)" fill="#2f2e41"/>
    <path id="Path_10870" data-name="Path 10870" d="M762.89,436.355H754.7a2.306,2.306,0,0,1-2.3-2.3V423.3a2.306,2.306,0,0,1,2.3-2.3h8.189a2.306,2.306,0,0,1,2.3,2.3v10.748A2.306,2.306,0,0,1,762.89,436.355Z" transform="translate(-522.02 -363.944)" fill="#2f2e41"/>
    <path id="Path_7487" data-name="Path 7487" d="M863.718,536.081h-41.97a4.355,4.355,0,0,1-4.351-4.35v-81.38A4.355,4.355,0,0,1,821.749,446h41.97a4.355,4.355,0,0,1,4.35,4.351v81.38A4.355,4.355,0,0,1,863.718,536.081Z" transform="translate(-553.751 -322.642)" fill="#2f2e41"/>
    <path id="Path_10868" data-name="Path 10868" d="M863.718,536.081h-41.97a4.355,4.355,0,0,1-4.351-4.35v-81.38A4.355,4.355,0,0,1,821.749,446h41.97a4.355,4.355,0,0,1,4.35,4.351v81.38A4.355,4.355,0,0,1,863.718,536.081Z" transform="translate(-553.751 -376.148)" fill="#2f2e41"/>
    <path id="Path_7488" data-name="Path 7488" d="M785.427,536.081H712.748a4.355,4.355,0,0,1-4.35-4.35v-81.38a4.355,4.355,0,0,1,4.35-4.351h72.679a4.355,4.355,0,0,1,4.351,4.351v81.38A4.355,4.355,0,0,1,785.427,536.081Z" transform="translate(-500.54 -322.642)" fill="#3f3d56"/>
    <path id="Path_10867" data-name="Path 10867" d="M785.427,536.081H712.748a4.355,4.355,0,0,1-4.35-4.35v-81.38a4.355,4.355,0,0,1,4.35-4.351h72.679a4.355,4.355,0,0,1,4.351,4.351v81.38A4.355,4.355,0,0,1,785.427,536.081Z" transform="translate(-500.54 -376.148)" fill="#3f3d56"/>
    <path id="Path_7489" data-name="Path 7489" d="M747.891,436.355H739.7a2.306,2.306,0,0,1-2.3-2.3V423.3a2.306,2.306,0,0,1,2.3-2.3h8.189a2.306,2.306,0,0,1,2.3,2.3v10.748a2.306,2.306,0,0,1-2.3,2.3Z" transform="translate(-514.697 -310.438)" fill="#3f3d56"/>
    <path id="Path_10869" data-name="Path 10869" d="M747.891,436.355H739.7a2.306,2.306,0,0,1-2.3-2.3V423.3a2.306,2.306,0,0,1,2.3-2.3h8.189a2.306,2.306,0,0,1,2.3,2.3v10.748a2.306,2.306,0,0,1-2.3,2.3Z" transform="translate(-514.697 -363.944)" fill="#3f3d56"/>
    <path id="Path_7490" data-name="Path 7490" d="M768.4,507.9h-9.724a1.281,1.281,0,0,1-1.28-1.28V491.78a1.281,1.281,0,0,1,1.28-1.28H768.4a1.281,1.281,0,0,1,1.279,1.28v14.843a1.281,1.281,0,0,1-1.279,1.28Z" transform="translate(-524.461 -344.366)" fill="#fff"/>
    <path id="Path_10871" data-name="Path 10871" d="M768.4,507.9h-9.724a1.281,1.281,0,0,1-1.28-1.28V491.78a1.281,1.281,0,0,1,1.28-1.28H768.4a1.281,1.281,0,0,1,1.279,1.28v14.843a1.281,1.281,0,0,1-1.279,1.28Z" transform="translate(-524.461 -398.73)" fill="#fff"/>
    <path id="Path_7491" data-name="Path 7491" d="M805.4,507.9h-9.725a1.281,1.281,0,0,1-1.28-1.28V491.78a1.281,1.281,0,0,1,1.28-1.28H805.4a1.281,1.281,0,0,1,1.28,1.28v14.843a1.281,1.281,0,0,1-1.28,1.28Z" transform="translate(-542.523 -344.366)" fill="#fff"/>
    <path id="Path_10872" data-name="Path 10872" d="M805.4,507.9h-9.725a1.281,1.281,0,0,1-1.28-1.28V491.78a1.281,1.281,0,0,1,1.28-1.28H805.4a1.281,1.281,0,0,1,1.28,1.28v14.843a1.281,1.281,0,0,1-1.28,1.28Z" transform="translate(-542.523 -398.73)" fill="#fff"/>
    <path id="Path_7492" data-name="Path 7492" d="M768.4,560.9h-9.724a1.281,1.281,0,0,1-1.28-1.28V544.779a1.281,1.281,0,0,1,1.28-1.28H768.4a1.281,1.281,0,0,1,1.279,1.28v14.843A1.281,1.281,0,0,1,768.4,560.9Z" transform="translate(-524.461 -370.239)" fill="#fff"/>
    <path id="Path_10874" data-name="Path 10874" d="M768.4,560.9h-9.724a1.281,1.281,0,0,1-1.28-1.28V544.779a1.281,1.281,0,0,1,1.28-1.28H768.4a1.281,1.281,0,0,1,1.279,1.28v14.843A1.281,1.281,0,0,1,768.4,560.9Z" transform="translate(-524.461 -424.603)" fill="#fff"/>
    <path id="Path_7493" data-name="Path 7493" d="M805.4,560.9h-9.725a1.281,1.281,0,0,1-1.28-1.28V544.779a1.281,1.281,0,0,1,1.28-1.28H805.4a1.281,1.281,0,0,1,1.28,1.28v14.843A1.281,1.281,0,0,1,805.4,560.9Z" transform="translate(-542.523 -370.239)" fill="#fff"/>
    <path id="Path_10873" data-name="Path 10873" d="M805.4,560.9h-9.725a1.281,1.281,0,0,1-1.28-1.28V544.779a1.281,1.281,0,0,1,1.28-1.28H805.4a1.281,1.281,0,0,1,1.28,1.28v14.843A1.281,1.281,0,0,1,805.4,560.9Z" transform="translate(-542.523 -424.603)" fill="#fff"/>
    <path id="Path_7494" data-name="Path 7494" d="M519.678,621.524H76.526a.521.521,0,0,1,0-1.024H519.678a.521.521,0,0,1,0,1.024Z" transform="translate(-112.369 -407.829)" fill="#e6e6e6"/>
    <path id="Path_7495" data-name="Path 7495" d="M393.009,656.524h-47.6a.512.512,0,1,1,0-1.024h47.6a.512.512,0,0,1,0,1.024Z" transform="translate(-238.896 -424.915)" fill="#e6e6e6"/>
    <path id="Path_7496" data-name="Path 7496" d="M624.009,656.524h-47.6a.512.512,0,1,1,0-1.024h47.6a.512.512,0,1,1,0,1.024Z" transform="translate(-351.665 -424.915)" fill="#e6e6e6"/>
    <path id="Path_7497" data-name="Path 7497" d="M855.009,656.524h-47.6a.512.512,0,1,1,0-1.024h47.6a.512.512,0,1,1,0,1.024Z" transform="translate(-464.433 -424.915)" fill="#e6e6e6"/>
    <path id="Path_7498" data-name="Path 7498" d="M460.655,520.817c0-9.04-7.333-30.49-16.378-30.49s-16.378,21.45-16.378,30.49a16.378,16.378,0,1,0,32.757,0Z" transform="translate(-279.415 -344.282)" fill="#034927"/>
    <path id="Path_7499" data-name="Path 7499" d="M452.655,520.817c0-9.04-7.333-30.49-16.378-30.49s-16.378,21.45-16.378,30.49a16.378,16.378,0,1,0,32.757,0Z" transform="translate(-275.509 -344.282)" fill="#046a38"/>
    <path id="Path_7500" data-name="Path 7500" d="M452.41,576.956a.512.512,0,0,1-.512-.512V530.82a.512.512,0,0,1,1.024,0v45.624A.512.512,0,0,1,452.41,576.956Z" transform="translate(-291.131 -363.8)" fill="#2f2e41"/>
    <path id="Path_7501" data-name="Path 7501" d="M452.41,538.561a.512.512,0,0,1-.362-.874l6.693-6.694a.512.512,0,1,1,.724.724l-6.693,6.694a.51.51,0,0,1-.362.15Z" transform="translate(-291.131 -364.061)" fill="#2f2e41"/>
    <path id="Path_7502" data-name="Path 7502" d="M971.657,520.817c0-9.04-7.333-30.49-16.378-30.49s-16.378,21.45-16.378,30.49a16.378,16.378,0,0,0,32.757,0Z" transform="translate(-613.066 -344.282)" fill="#034927"/>
    <path id="Path_7503" data-name="Path 7503" d="M963.655,520.817c0-9.04-7.333-30.49-16.378-30.49s-16.378,21.45-16.378,30.49a16.378,16.378,0,1,0,32.757,0Z" transform="translate(-609.159 -344.282)" fill="#046a38"/>
    <path id="Path_7504" data-name="Path 7504" d="M963.41,576.956a.512.512,0,0,1-.512-.512V530.82a.512.512,0,0,1,1.024,0v45.624A.512.512,0,0,1,963.41,576.956Z" transform="translate(-624.781 -363.8)" fill="#2f2e41"/>
    <path id="Path_7505" data-name="Path 7505" d="M963.41,538.561a.512.512,0,0,1-.362-.874l6.693-6.694a.512.512,0,1,1,.724.724l-6.694,6.694A.51.51,0,0,1,963.41,538.561Z" transform="translate(-624.781 -364.061)" fill="#2f2e41"/>
    <g id="Group_13424" data-name="Group 13424" transform="translate(221.29 166.508)">
      <path id="Path_7462" data-name="Path 7462" d="M557.856,587.965a.512.512,0,0,0,0-1.024h-4.862v-2.047h4.862a.512.512,0,0,0,0-1.024H516.4a.512.512,0,1,0,0,1.024h4.862v2.047H516.4a.512.512,0,0,0,0,1.024h4.862v2.047H516.4a.512.512,0,1,0,0,1.024h4.862v2.047H516.91a1.024,1.024,0,0,0,0,2.047h4.142a.762.762,0,0,0-.047.256v7.165a.768.768,0,1,0,1.535,0v-7.165a.766.766,0,0,0-.047-.256h29.268a.765.765,0,0,0-.047.256v7.165a.768.768,0,1,0,1.535,0v-7.165a.764.764,0,0,0-.047-.256h4.141a1.024,1.024,0,1,0,0-2.047h-4.35v-2.047h4.862a.512.512,0,0,0,0-1.024h-4.862v-2.047Zm-35.572-3.071H551.97v2.047H522.284Zm29.686,8.189H522.284v-2.047H551.97Zm0-3.071H522.284v-2.047H551.97Z" transform="translate(-515.886 -556.455)" fill="#2f2e41"/>
      <path id="Path_7467" data-name="Path 7467" d="M621.41,576.956a.512.512,0,0,1-.512-.512V530.82a.512.512,0,0,1,1.024,0v45.624A.512.512,0,0,1,621.41,576.956Z" transform="translate(-567.15 -530.308)" fill="#2f2e41"/>
      <path id="Path_7506" data-name="Path 7506" d="M620.937,547.819h-11.26a1.281,1.281,0,0,1-1.28-1.28V535.28a1.281,1.281,0,0,1,1.28-1.28h11.26a1.28,1.28,0,0,1,1.28,1.279v11.26A1.281,1.281,0,0,1,620.937,547.819Z" transform="translate(-561.048 -532.11)" fill="#2f2e41"/>
    </g>
    <path id="Path_7565" data-name="Path 7565" d="M184.374,409.844h-3.429l.635-1.535h2.16Z" transform="translate(-119.907 -189.496)" fill="#f2f2f2"/>
    <path id="Path_7566" data-name="Path 7566" d="M184.423,414.845h-5.538l.635-1.535h4.269Z" transform="translate(-118.902 -191.937)" fill="#f2f2f2"/>
    <path id="Path_7567" data-name="Path 7567" d="M182.4,432.139h-4.279l.809-1.97H181.6Z" transform="translate(-118.531 -200.167)" fill="#f2f2f2"/>
    <path id="Path_7568" data-name="Path 7568" d="M182.461,438.57h-6.986l.809-1.971h5.369Z" transform="translate(-117.237 -203.306)" fill="#f2f2f2"/>
    <path id="Path_7598" data-name="Path 7598" d="M989.422,611.285a8.786,8.786,0,1,1,17.571,0" transform="translate(-637.729 -399.042)" fill="#034927"/>
    <path id="Path_7599" data-name="Path 7599" d="M1006.364,614.8a.238.238,0,0,1-.237-.237v-4.63a.237.237,0,0,1,.475,0v4.63A.237.237,0,0,1,1006.364,614.8Z" transform="translate(-645.884 -402.552)" fill="#ccc"/>
    <path id="Path_7600" data-name="Path 7600" d="M1003.646,613.771a.236.236,0,0,1-.155-.057l-2.849-2.446a.237.237,0,1,1,.309-.36l2.849,2.445a.238.238,0,0,1-.155.418Z" transform="translate(-643.166 -403.119)" fill="#ccc"/>
    <path id="Path_7601" data-name="Path 7601" d="M1042.31,611.285a8.786,8.786,0,1,1,17.571,0" transform="translate(-663.548 -399.042)" fill="#046a38"/>
    <path id="Path_7602" data-name="Path 7602" d="M1059.253,614.8a.237.237,0,0,1-.237-.237v-4.63a.238.238,0,0,1,.475,0v4.63a.238.238,0,0,1-.238.237Z" transform="translate(-671.704 -402.552)" fill="#ccc"/>
    <path id="Path_7603" data-name="Path 7603" d="M1056.536,613.771a.235.235,0,0,1-.154-.057l-2.849-2.446a.237.237,0,1,1,.309-.36l2.85,2.446a.238.238,0,0,1-.155.418Z" transform="translate(-668.986 -403.118)" fill="#ccc"/>
  </g>
</svg>
