<svg id="img-modal-confirmation_bookimng_" data-name="img-modal-confirmation bookimng " xmlns="http://www.w3.org/2000/svg" width="99.756" height="92.964" viewBox="0 0 99.756 92.964">
  <g id="Group_13268" data-name="Group 13268" transform="translate(0 9.183)">
    <path id="Path_7402" data-name="Path 7402" d="M67.3,3.836S53.877,20.842,32.394,10.7-10.57,28,7.928,44.712s.4,25.89,12.964,36.13C35.176,92.48,47.611,68.88,58.949,74.25,83.972,86.1,102.51,81.411,98.333,67.686,91,43.594,81.625,42.027,88.786,29.5S80.142-9.092,67.3,3.836Z" transform="translate(-0.9 -0.328)" fill="rgba(134,210,149,0.14)"/>
    <path id="Path_7404" data-name="Path 7404" d="M208.02,10.876l-5.478-1a.559.559,0,0,0-.65.45l-1.974,10.833a.559.559,0,0,0,.45.65l5.478,1a.559.559,0,0,0,.65-.45l1.974-10.833A.559.559,0,0,0,208.02,10.876Z" transform="translate(-125.345 5.094)" fill="#1ab55c"/>
  </g>
  <path id="Path_7408" data-name="Path 7408" d="M50.961,21.94c-2.06,3.948-2.58,6.046-8.829,9.964a.256.256,0,0,0-.1.134A21.42,21.42,0,0,1,37.087,40.3a.242.242,0,0,0-.057.241c.7,2.328,1.456,6.524-.65,9.964-3.1,5.064-5.389,2.006-4.911.86.409-.982,3.9-3.092,3.1-8.362a.249.249,0,0,0-.394-.161,21.278,21.278,0,0,1-8.511,3.681.244.244,0,0,0-.195.31,12.1,12.1,0,0,1-2.117,11.221c-1.747,2.1-4.063-.971-1.747-3.065,1.437-1.3,1.326-5.022.653-7.893a.247.247,0,0,0-.248-.191c-.134,0-.271,0-.405,0A21.35,21.35,0,0,1,8.534,42.472a.25.25,0,0,0-.4.157c-.9,5.931,2.668,7.984,3.176,9.505A2.021,2.021,0,0,1,8.973,54.92a.281.281,0,0,1-.1-.05C3.657,50.949,4.112,42.732,4.685,38.776a.23.23,0,0,0-.05-.183,21.465,21.465,0,0,1,8.2-32.727h0C13.987,4.405,15.39,2.345,15.6.9A.249.249,0,0,1,16.051.79a5.389,5.389,0,0,1,1.215,3.646c-.008.05-.011.1-.019.149-.015.084-.034.164-.053.248-.019.065-.034.13-.057.195a9.669,9.669,0,0,0,.764-.711,6.705,6.705,0,0,0,1.578-2.373.25.25,0,0,1,.47-.026,7.408,7.408,0,0,1,.512,1.873.253.253,0,0,0,.256.225C21.012,4,21.306,4,21.6,4a21.46,21.46,0,0,1,21.46,21.456c0,.271,0,.539-.015.806a.252.252,0,0,0,.333.248,6.422,6.422,0,0,0,3.856-4.089c1.816-4.777,2.007-6.115,1.434-9.841s2.2-3.535,2.77-2.293S53.254,17.545,50.961,21.94Z" transform="translate(27.611 26.238)" fill="#86d295"/>
  <path id="Path_7407" data-name="Path 7407" d="M29.812,12.819c-7.161,1.7-6.655-2.377-7.359-4.846-.723-2.532-1.205-1.688-5.666,1.808s-4.943-2.17-5.025-3.134S11.482,5.32,9.191,5.6,6.3,4.115,4.369,5.32C3.569,5.822,1,3.417,0,2.978,1.466,1.512,4.413,1.387,6.505.459A1.487,1.487,0,0,0,7.124.452C9.176-.4,11.215.21,13.435.213A16.938,16.938,0,0,1,29.812,12.819Z" transform="matrix(0.788, -0.616, 0.616, 0.788, 27.922, 40.655)" fill="#046a38"/>
  <g id="Group_13269" data-name="Group 13269" transform="matrix(0.883, -0.469, 0.469, 0.883, 35.491, 48.969)">
    <path id="Path_7409" data-name="Path 7409" d="M22.955,6.22c-.674,4.123-6.345,6.627-12.662,5.594S-.608,6.6.066,2.479A5.171,5.171,0,0,1,.944.346.826.826,0,0,1,2.059.129a28.374,28.374,0,0,0,9.979,3.342,29.838,29.838,0,0,0,9.886.145.827.827,0,0,1,.96.617A5.085,5.085,0,0,1,22.955,6.22Z" transform="translate(0 8.019)" fill="#046a38"/>
    <path id="Path_7410" data-name="Path 7410" d="M9.112,6.058a.494.494,0,0,1-.488-.573A3.873,3.873,0,1,0,.981,4.235a.494.494,0,1,1-.974-.159A4.86,4.86,0,0,1,9.6,5.644a.494.494,0,0,1-.487.414Z" transform="translate(1.856)" fill="#046a38"/>
    <path id="Path_7411" data-name="Path 7411" d="M9.112,6.043a.495.495,0,0,1-.488-.573A3.872,3.872,0,0,0,.981,4.22a.494.494,0,1,1-.974-.159A4.86,4.86,0,0,1,9.6,5.629a.494.494,0,0,1-.487.414Z" transform="translate(13.697 1.951)" fill="#046a38"/>
  </g>
  <g id="Group_13270" data-name="Group 13270" transform="translate(60.555 16.61)">
    <path id="Path_7412" data-name="Path 7412" d="M.373,94.4a.256.256,0,0,1-.186-.466l11.5-7.575a.256.256,0,0,1,.283.427C-.374,94.907.454,94.382.373,94.4Z" transform="translate(-0.072 -71.295)" fill="#046a38"/>
    <path id="Path_7413" data-name="Path 7413" d="M37.9,57.364c-.05.009.4.034-6.98-.45a.256.256,0,1,1,.034-.511l6.919.453a.256.256,0,0,1,.028.507Z" transform="translate(-25.332 -46.603)" fill="#046a38"/>
    <path id="Path_7414" data-name="Path 7414" d="M20.488,28.841c-.1.018.8.3-13.209-4.388a.256.256,0,1,1,.162-.486l13.084,4.379a.256.256,0,0,1-.037.495Z" transform="translate(-5.877 -19.815)" fill="#046a38"/>
    <path id="Path_7415" data-name="Path 7415" d="M72.151,15.459a.256.256,0,0,1-.213-.059l-2.692-2.338a.256.256,0,0,1,.336-.386l2.692,2.338a.256.256,0,0,1-.123.445Z" transform="translate(-57.109 -10.456)" fill="#046a38"/>
    <path id="Path_7416" data-name="Path 7416" d="M144.419,5.984a.256.256,0,0,1-.177-.472L152.889.267a.256.256,0,0,1,.265.438C143.886,6.329,144.491,5.971,144.419,5.984Z" transform="translate(-118.987 -0.233)" fill="#046a38"/>
    <path id="Path_7417" data-name="Path 7417" d="M159.419,64.2c-.069.012.384.081-7.222-1.249a.256.256,0,0,1,.088-.5L159.42,63.7a.256.256,0,0,1,0,.505Z" transform="translate(-125.484 -51.593)" fill="#046a38"/>
    <path id="Path_7418" data-name="Path 7418" d="M148.259,102.472a.256.256,0,0,1-.242-.09l-5.995-7.3a.259.259,0,0,1-.051-.089.256.256,0,0,1,.447-.236l5.995,7.3a.256.256,0,0,1-.153.414Z" transform="translate(-117.204 -78.181)" fill="#046a38"/>
    <path id="Path_7419" data-name="Path 7419" d="M129.705,110.279a.256.256,0,0,1-.3-.208l-.559-3.168a.256.256,0,1,1,.5-.089l.559,3.168a.256.256,0,0,1-.208.3Z" transform="translate(-106.38 -88.045)" fill="#046a38"/>
  </g>
  <g id="Group_13271" data-name="Group 13271" transform="translate(14.012)">
    <path id="Path_7420" data-name="Path 7420" d="M231.751,7.044a.486.486,0,0,1-.571-.484c.021-1.628-1.011-2.19-2.653-2.2a.486.486,0,1,1,0-.971A4.834,4.834,0,0,0,230.406,3a4.154,4.154,0,0,0,.632-2.046c0-.083,0-.167,0-.252a.486.486,0,0,1,.971.017q0,.126,0,.249c.033,1.515,1.195,2.221,2.676,2.208a.486.486,0,0,1,.017.972,2.624,2.624,0,0,0-2.553,2.444.486.486,0,0,1-.4.452Zm-.968-3.149a2.594,2.594,0,0,1,.96.937,3.582,3.582,0,0,1,1.051-1.062,3.012,3.012,0,0,1-1.189-.974,5.164,5.164,0,0,1-.468.86.681.681,0,0,1-.355.234Z" transform="translate(-149.437 -0.24)" fill="#046a38"/>
    <path id="Path_7421" data-name="Path 7421" d="M189.9,106.557a1.209,1.209,0,0,1-1.716-.514.486.486,0,0,0-.9.351c.4,1.343.232,2.006-.634,2.446a.486.486,0,0,0,.407.882c1.321-.552,1.8-.259,2.106.352a.486.486,0,0,0,.886-.4,2.288,2.288,0,0,1,.461-2.373.486.486,0,0,0-.606-.748Zm-.965,2.03a2.021,2.021,0,0,0-.643-.12,2.52,2.52,0,0,0,.165-.924,2.2,2.2,0,0,0,.682.155,3.334,3.334,0,0,0-.2.892Z" transform="translate(-176.192 -78.74)" fill="#86d295"/>
    <path id="Path_7422" data-name="Path 7422" d="M115.422,260.744a.486.486,0,0,1-.2-.922,3.127,3.127,0,0,0,1.011-1.734,1.608,1.608,0,0,0-.148-1.321.486.486,0,0,1,.409-.782,1.9,1.9,0,0,0,1.841-1.169.486.486,0,0,1,.933.132,8.106,8.106,0,0,1-.426,3.634,3.682,3.682,0,0,1-3.416,2.162Zm1.775-3.852a3.775,3.775,0,0,1-.467,2.581,2.7,2.7,0,0,0,1.211-1.262,7.012,7.012,0,0,0,.383-1.844,2.881,2.881,0,0,1-1.128.522Z" transform="translate(-38.54 -222.913)" fill="#046a38"/>
    <path id="Path_7423" data-name="Path 7423" d="M2.639,348.461a.792.792,0,0,1-.654-.193,3.878,3.878,0,0,1-1.172-4.246c.533-1.574,1.9-2.318,3.247-2.951a.486.486,0,0,1,.414.879,4.421,4.421,0,0,0-.153,2.246,8.689,8.689,0,0,0,.938,1.921.486.486,0,0,1,.181.914C2.632,348.515,2.808,348.431,2.639,348.461Zm.685-5.911a3.394,3.394,0,0,0-1.588,1.788,2.915,2.915,0,0,0,.8,3.121l1.806-.95a10.094,10.094,0,0,1-.969-2.084A6.942,6.942,0,0,1,3.324,342.549Z" transform="translate(-0.598 -287.079)" fill="#046a38"/>
    <path id="Path_7424" data-name="Path 7424" d="M156.962,478.3a4.6,4.6,0,0,1-1.325.036.486.486,0,0,1-.271-.84,4.291,4.291,0,0,0,.86-5.34.486.486,0,0,1,.686-.649,2.323,2.323,0,0,0,2.01-2.032.486.486,0,0,1,.888-.207C161.986,472.584,160.877,477.609,156.962,478.3Zm.451-5.9a5.242,5.242,0,0,1-.615,4.944c2.848-.508,3.783-3.949,2.712-6.564a3.3,3.3,0,0,1-2.095,1.625Z" transform="translate(-134.07 -465.643)" fill="#046a38"/>
  </g>
</svg>
