<svg xmlns="http://www.w3.org/2000/svg" xmlns:xlink="http://www.w3.org/1999/xlink" width="308" height="768" viewBox="0 0 308 768">
  <defs>
    <clipPath id="clip-path">
      <rect id="Rectangle_764" data-name="Rectangle 764" width="308" height="768" fill="#fff" stroke="#707070" stroke-width="1"/>
    </clipPath>
  </defs>
  <g id="Mask_Group_54" data-name="Mask Group 54" clip-path="url(#clip-path)">
    <g id="Group_14064" data-name="Group 14064">
      <g id="Path_7666" data-name="Path 7666" fill="#046a38" opacity="0.9">
        <path d="M683,768h0Z" stroke="none"/>
        <path d="M 0 768 L 683 768 L 0 768 Z" stroke="none" fill="#707070"/>
      </g>
      <g id="Rectangle_650" data-name="Rectangle 650" fill="#046a38" stroke="#707070" stroke-width="1">
        <rect width="307" height="768" stroke="none"/>
        <rect x="0.5" y="0.5" width="306" height="767" fill="none"/>
      </g>
      <g id="Ellipse_55" data-name="Ellipse 55" transform="translate(-58 653)" fill="none" stroke="#86d295" stroke-width="6">
        <circle cx="74" cy="74" r="74" stroke="none"/>
        <circle cx="74" cy="74" r="71" fill="none"/>
      </g>
      <path id="Polygon_13" data-name="Polygon 13" d="M39.122,81.854c5.287-21.236,35.469-21.236,40.756,0l32.631,131.072A21,21,0,0,1,92.131,239H26.869A21,21,0,0,1,6.491,212.927Z" transform="matrix(0.839, -0.545, 0.545, 0.839, 110.03, 501.586)" fill="#86d295"/>
      <path id="Path_7665" data-name="Path 7665" d="M99.561,74.976c-5.394,8.991-29.233,9.35-48.781,2.877m0,0c-19.548-6.473-39.255-25.893-44-41.716S8.833,7.083,24.168,3.629s26.612,8.45,26.612,8.45S62.057.175,77.393,3.629,99.53,20.313,94.783,36.137,70.328,71.38,50.781,77.853Zm0,0C31.233,84.326,7.394,83.967,2,74.976" transform="matrix(0.951, -0.309, 0.309, 0.951, -30.113, 359.141)" fill="none" stroke="#fff" stroke-width="1"/>
      <ellipse id="Ellipse_60" data-name="Ellipse 60" cx="375" cy="205.5" rx="375" ry="205.5" transform="translate(-484 -370)" fill="#86d295"/>
      <path id="Polygon_17" data-name="Polygon 17" d="M44,0,88,77H0Z" transform="matrix(-0.035, -0.999, 0.999, -0.035, 156.571, 164.634)" fill="#86d295"/>
      <g id="Ellipse_59" data-name="Ellipse 59" transform="translate(252 259)" fill="none" stroke="#86d295" stroke-width="6">
        <circle cx="74" cy="74" r="74" stroke="none"/>
        <circle cx="74" cy="74" r="71" fill="none"/>
      </g>
    </g>
  </g>
</svg>
